<svg xmlns:xlink="http://www.w3.org/1999/xlink" xmlns="http://www.w3.org/2000/svg" viewBox="0 0 656 656" width="656"  height="656" ><path fill="#ABD1F5" d="m62 265 5.8-17c-.4-.7-.6-1.5-.4-2 .2-.7.8-1.2 1.2-1.4l1.2-4 9-21.6c.2-1 1-3.5 2.4-6.4a69.9 69.9 0 0 1 4.1-17.2l2.9-7 2.9-11.4c1.7-5.8 5.2-18.4 5.8-22 .6-3.6 6.8-19 9.8-26.2.4-.9 2.4-4.7 7.2-12.8 5.4-12.2 23.5-27.2 32-33.1l6.6-3.7 7.9-3.6 17.3-6.2 16.6-7.1L215 52c7-4.1 21.8-12.5 24.1-13.2 2.3-.8 5-3.5 6-4.7 1.2-1.2 4.2-3.8 6.6-4.7 2.3-1 8.2-6.8 10.8-9.6 1.6-1.4 3.8-4.7 9.2-7.5 5.3-2.9 20.4-4 27.2-4.3h25.6l16.7.3 14.1.6 10.3.7 9.5 1.7c6.4.6 12.6 4.3 15.4 8l2.7 3.1 8.9 8 1.8.7 4.9 3 2.7 3.5c4.2 2.2 13.1 7.1 15.2 8.7 2 1.6 30.1 15.4 44 22 8 3.2 39 12.3 55.3 30 5.2 4.3 7 7.8 11.4 12.4 5.1 5.3 15.1 29 16.9 32 1.4 2.6 5 17 6.8 24l4.8 20.5 8.4 29 8.9 22.7 2.3 5.4.6 1.5c.5.6 1.4 2 1 2.6-.2.6 0 2 .2 2.7l1 2.6 2 5.8 2.2 5.9c.3 1.3-4.3 4-6.6 5.2l-11.1 5-12.6 4.7-15 5-14.6 4.6-10.9 2.4a66 66 0 0 1-8.6 1.4c-3.4.3-4.7-.4-4.9-.8l-5-12.3-1.9-3.8-1.8-1.6.1-.8v-1l-.4-1.8-1.3-4.1-3.3-9-1.3-2-2.2-5.7-2.5-.3-1 .8v2l-2.7 13.1-8.7 58-.9 6.4-.2 7.9c0 3-1 16-1.7 18.3l-2.5 9-.2 7.6-.3 8.7-.3 7.5.3 4 .5 15c.3 1.9-.6 7-1.1 9.3-.6 2.4-1.6 7.5-1.4 8.8.3 1.4-.2 4.4-.5 5.8l-1.3 8.9c-.2 1.4-.8 5-1.3 7.2.7 1.6 4.7 14.6 5.9 17.8 1.2 3.3 4.8 19.4 5 20.7.3 1 1.1 7.8 1.5 11 .1 2.5.3 8 .2 10 0 2-.8 6.6-1.1 8.6-.2 1.7-.7 5.5-1.2 7s-1.2 8.5-1.4 11.8A81.1 81.1 0 0 1 477 552l.3 7.1.2 6.5 1.4 17.7.5 6 1.5 7.7.4 4.6c.3 2.1.7 7 .7 10.1.3 3-2.5 6-4 7 0 .2-1.2 1-4.6 3-6.4 5-26.3 11.6-35.5 14.3a379.2 379.2 0 0 1-58.6 11.2c-2.3.8-27 2.2-39 2.7-8.3 0-27 0-34.5-.4-11.5.9-47.4-4.8-63.9-7.7-6.3-.9-42.1-10.4-48-14.4-3.7-2.4-14.3-8-16.9-9.7a10.7 10.7 0 0 1-4.1-5.4c-.3-1 .1-8.6.4-12.3l.6-5 1.4-9.6 1-8 .3-4.3-.4-7.7-1-10.8v-13.8l.7-10 1.1-7.7 1.8-8 2.8-9.5 3.3-9.3a78 78 0 0 1-2.5-20.8 1112.2 1112.2 0 0 1 .6-14.1c-.1-.7 2.1-10.2 3.3-15l1-3.8-.1-.8c-1.4-8.3-1.5-14-1.9-15.4a78 78 0 0 1 .4-10.9l2-6.7.4-2-.4-1.5a67.6 67.6 0 0 1-7.3-27l-.2-7.7.5-5.4.3-1.5.4-3.9.7-5 .2-2.2-.2-.4-.3-6-1-3.1-.3-4-.7-7.6-1.5-8.3-.8-4.2-1.4-9.2-.4-4.3L172 279l-2.2-14.6a545 545 0 0 1-1.7-8.5c-.1-1-2-2.1-3-2.6 0 .6-.6 1.5-1.7 2-1.2.7-2.4 1.3-2.7 2.2l-.8 4.7a15 15 0 0 1-2.5 4.1 16.4 16.4 0 0 0-2.6 6.3l-.3 2.4v1.3l-1.4 1.1-.3.3-6 14.5c-.7 2.3-1.3 1.8-1.9 1.5l-10.5-3.1-9-3-18.3-6-20-6.8-13-4.8c-2.1-1-7-3-9.4-3.8-2.5-.8-3-1.3-2.8-1.4Z"></path><path fill="#ABD1F5" d="m153 277.8-5.8 14.5c-1 2.8-2.5 1.4-4.6.7l-2-.5-7.8-2.4-15.6-5-19-6.5-16-5.7-12-4.4-5.5-2.2c-3.5-1.1-3.1-1.2-1.9-4l1.8-4.9 3.2-9.3c-1.1-1.9 0-3.1.8-3.5l.2-.7.5-2 4.3-10.3 2.4-6 2.6-6.2.8-2.6 1.7-4.1v-.4l.3-2.6.6-3.4 1-3.5 1-3.8c.1-.9 2-5.6 3-7.8l.7-1.5.7-2 .9-3.6 3.4-12.6 2.4-8.6 2.7-11.2 3.5-9.6 3.6-9.4 3-6 2-4.1 3.6-5.8 2.2-4.3 3-4.4 3.2-3.9 1.7-1.9 3.6-3.6 3-2.9a109.3 109.3 0 0 1 13.3-11.2l1.2-.8a79.3 79.3 0 0 1 18-9l11.4-4.2 4-1.4 6.3-2.7 3.3-1.4 2.8-1.2 4-1.6 3.9-2.1 10.1-5 4.8-2.4 5.7-3.2 13.8-7.7c1.5-.8 4.7-2.7 6-3a8.5 8.5 0 0 0 3-1.8c3.4-2.5 4.5-4.8 6-5.3.4-.4 2-1.6 5.2-3.2-4.4 3.3-3.2 11-2.1 14.6a77 77 0 0 0 8.7 18.8l-.6.4-3.9 2-9 5-6.6 3.7-10 3.2c-4.3.8-13.2 2.4-14.4 2.8-1.2.3-10.2 4-14.5 5.8l-11.8 5.6-8.8 3.2-12 3.4-19 8.7c-5.8 1.4-19.3 14.2-25.3 20.4L122 128l.3.4 6.6 16.6 10.5 22.6 6.2 10.8c2.9 3 8.7 9.7 9.1 11.7.5 2 4.3 5.1 6.1 6.5.2.8.8 3.1 1.7 5.4-3.2 4.8-.4 10.6 1.4 12.9l1 4.6.3 6.5-.5 1c-1.4 1.4-.3 4 .4 5l.1 3c.5 1.4 1.3 4.2.8 5.2s0 2.7.3 3.4v4.9c-3.1.5-2 3.7-1 5.2-.5.7-1.8 2.2-3.2 2.7-1.4.5-1.8 3.6-1.8 5.2a9 9 0 0 1-2.7 4.7c-1.8 1.6-2.8 7.4-3 10.1l-1.6 1.5ZM403.8 31.1l-1.6-.7c1.2 1 2 2.2 2.8 4 1.8 2.8.6 8-.7 12.2a78 78 0 0 1-7.6 17l.5.2 3.3 1.5 5.4 3.3 5.9 3 7.2 3 8.2 2.2c.7.2 3.3 1 8.4 2 5.5.1 21.1 8 28.2 11.8l14 4.5a517 517 0 0 1 23.8 9.3c6.3.5 24.7 17 33.1 25.2l-4.6 11.6-8.2 19.3-3.8 9-5.2 8.6c-2.2 3.2-7.3 10.2-9.4 12.4-1.3-.3-5.6 4.4-7.6 6.7.3 2 .6 6.7-1.4 9.1-2 2.5-1.8 6.9-1.4 8.7.3.8.5 3-1 5.3-1.4 2.4-1 4-.5 4.5-.2.8-.7 2.5-1.4 3.4-.8.8-.4 3.3 0 4.5l.1 3-.1 2.2c-.2.6-.6 2.6-1.1 6.2 3.6 3.3 1.3 5.7-.3 6.5l2.2.3 1.3 2.7 1.5 3.8 1.1 2.3 2.7 7.1 1.6 4.8.3 2.1v1.6l1.9 1.9 4 8.9 1.8 4.5c.5 4 5.5 3.6 8 3l5.9-1.1 7.3-1.7 5.2-1.2 7.3-2.1 8.3-2.7 7.5-2.5 9.8-3.6 8-3 6.3-2.8 3.4-1.6 3-1.3 2.5-1.6 1-.8c1.9-1 2-2.1 1.6-2.9l-.6-1.7-1-2.7-1.6-4.2-1.4-4-.5-1.4-.1-.7v-1.2c.7-1-.4-2.5-1-3v-.2l-1-2-2.4-6-3.3-8.3-2.3-6a3896.4 3896.4 0 0 0-3.1-8.4l-2.2-7.1-1.5-5.7-2.5-8.9-1-3.1-1.2-4.5-2-8.2-2.2-9.3-2.8-11.4-2.6-9.1-.9-3c0-.3-.6-1.5-1-2l-2.5-5.6-3-6.6-5.7-11.3-2.5-4.3-2.3-3.3-.7-.7-4.3-5-3-3.8a73 73 0 0 0-4.2-3.8c-1.1-2-7.6-7-10.8-9.4-6.2-5-23.4-12.8-34-16.7l-11-4-16-7.9-20.1-10-7.1-3.8-2.4-1.5-13-7.3-2.6-3.4-5-3Z"></path><path fill="#ABD1F5" fill-rule="evenodd" d="m262.9 19.6-3.7 3.8-3.5 3.3-2.7 2.1c-2 1.6-5 5.7-1 17.1 4 9.8 5.2 12 5.3 11.9 1.4 2.5 4.4 7.9 5.9 9.1l6 7.8 15 14.6 10.5 8.7 12.6 11.3 8.3 6.2 7.6.6 17 .8 9.2-6.6 7-5.6 10.3-9 7-5.7 5.3-5.2 3.6-3.6 3.4-3.4 4.2-5 4-5.3 2.7-4C403.5 53 407 40 406 37.3c0-1.3-.9-4.6-3.9-7.2A129 129 0 0 1 391.2 20c-.8-1.1-4.2-4.3-7.3-6a52 52 0 0 0-15.3-3.9L353.5 9l-10.2-.4-15.4-.4H301.6c-4.6.2-14.6.6-17.2 1.2l-3.4.6c-3.2.5-6.9 1-8.4 2l-1.4.8c-1.5.7-2.8 1.4-5 3.7l-3.3 3.2Zm4.3 14 1.9 5.5 4.6 8.2 5 6.7 5.3 6.6 11 10.7 10.8 9.8 12.8 11.7 7.4 7 3 3 15-13.3 16.7-15.7 6.7-6.2 6-6.6a104.1 104.1 0 0 0 13.8-19.6c1-1.9 1.8-4.5 2-5.6 2.7-7.9 1.4-13.8-1.5-17.8-4-5.2-14.9-6.6-18.5-7.1h-.7c-13.8-1.9-39.8-2-46-1.9-9-.2-28.1.2-32.5.7-.6 0-1.2 0-1.9.2-6.8.6-19.9 1.9-22.6 10.6a22.6 22.6 0 0 0 .9 10.3l.8 2.9Z"></path><path fill="#ABD1F5" d="m74.8 250.8-6.8-2.7-.3.7-3 8.7-2 5.7c-1 2.2-.5 1.9.1 2.3l2.2 1 8.8 3.3 10.4 3.8 10.7 3.8 14.3 4.8 13 4.3 7 2.3 13.8 4.3c2.2.7 3 1.4 3.8 0l6.3-15.6-4.6-1.8a88 88 0 0 1-9.4-3c-.8-.6-11.8-3.7-17.3-5.4l-7-2.4-13-4.3c-3.2-1.3-9.9-3.8-11-4-1.2-.2-11-3.8-16-5.8Z"></path><path fill="#ABD1F5" d="m505 284.5-3.5-7.5c.2-.2 1.2-.4 3 0 1.6.4 11.3-1.7 16-2.7l22.5-6.6 13.7-4.5 16.8-6.7a90 90 0 0 0 13.7-7.7v1l.6 2 1.9 5.5 2.9 7.8c.6 1.6-5.5 4.8-8.6 6.3l-17 7.2-15.3 5.4-13 4.2-13 3.3-9.9 2c-6.8 1.2-7.2-.4-8-2l-2.7-7Z"></path></svg>